<svg width="29" height="20" viewBox="0 0 29 20" fill="none" xmlns="http://www.w3.org/2000/svg">
<path d="M1.61111 20C1.15463 20 0.772259 19.84 0.464 19.52C0.154667 19.2011 0 18.8056 0 18.3333C0 17.8611 0.154667 17.4656 0.464 17.1467C0.772259 16.8267 1.15463 16.6667 1.61111 16.6667H27.3889C27.8454 16.6667 28.2277 16.8267 28.536 17.1467C28.8453 17.4656 29 17.8611 29 18.3333C29 18.8056 28.8453 19.2011 28.536 19.52C28.2277 19.84 27.8454 20 27.3889 20H1.61111ZM1.61111 11.6667C1.15463 11.6667 0.772259 11.5067 0.464 11.1867C0.154667 10.8678 0 10.4722 0 10C0 9.52778 0.154667 9.13167 0.464 8.81167C0.772259 8.49278 1.15463 8.33333 1.61111 8.33333H27.3889C27.8454 8.33333 28.2277 8.49278 28.536 8.81167C28.8453 9.13167 29 9.52778 29 10C29 10.4722 28.8453 10.8678 28.536 11.1867C28.2277 11.5067 27.8454 11.6667 27.3889 11.6667H1.61111ZM1.61111 3.33333C1.15463 3.33333 0.772259 3.17389 0.464 2.855C0.154667 2.535 0 2.13889 0 1.66667C0 1.19444 0.154667 0.798334 0.464 0.478334C0.772259 0.159445 1.15463 0 1.61111 0H27.3889C27.8454 0 28.2277 0.159445 28.536 0.478334C28.8453 0.798334 29 1.19444 29 1.66667C29 2.13889 28.8453 2.535 28.536 2.855C28.2277 3.17389 27.8454 3.33333 27.3889 3.33333H1.61111Z" fill="#A45D5D"/>
</svg>
